<svg width="51" height="62" viewBox="0 0 51 62" fill="none" xmlns="http://www.w3.org/2000/svg">
<path fill-rule="evenodd" clip-rule="evenodd" d="M42.29 32.8928C42.377 42.2623 50.515 45.3803 50.6051 45.4201C50.5363 45.64 49.3048 49.8634 46.3177 54.226C43.7354 57.9976 41.0554 61.7555 36.8335 61.8333C32.6851 61.9097 31.3511 59.3749 26.6083 59.3749C21.8669 59.3749 20.3848 61.7555 16.4579 61.9097C12.3827 62.0638 9.27952 57.8311 6.67579 54.0733C1.35539 46.3866 -2.7105 32.3523 2.74896 22.879C5.46111 18.1745 10.3079 15.1955 15.5687 15.1191C19.5704 15.0428 23.3476 17.8095 25.7939 17.8095C28.2386 17.8095 32.8287 14.4823 37.654 14.9709C39.6741 15.0549 45.3444 15.7864 48.9854 21.1124C48.6921 21.2941 42.2196 25.0596 42.29 32.8928M34.4935 9.88546C36.657 7.26833 38.1132 3.62504 37.7159 0C34.5974 0.125255 30.8263 2.07675 28.5894 4.69244C26.5847 7.00875 24.8291 10.7162 25.3028 14.2695C28.7788 14.5382 32.3298 12.5043 34.4935 9.88546" fill="#355C6E"/>
</svg>
