<svg width="94" height="95" viewBox="0 0 94 95" fill="none" xmlns="http://www.w3.org/2000/svg">
<g clip-path="url(#clip0_33_520)">
<g clip-path="url(#clip1_33_520)">
<path d="M93.0664 40.857C93.0609 35.5454 88.8217 31.2391 83.5895 31.2362H70.0434C69.4132 31.2362 62.2651 31.2362 61.6152 31.2362C60.3741 31.2477 59.2362 31.4345 58.4078 31.4231C58.076 31.4231 57.8138 31.3948 57.6603 31.3607L57.5462 31.327L57.5184 31.242C57.4932 31.1317 57.4682 30.9476 57.4682 30.6814C57.4682 30.5172 57.4934 30.2849 57.5128 30.0584L62.9178 16.4909C63.4365 15.1884 63.6819 13.8352 63.6819 12.51C63.6875 8.30831 61.2109 4.32766 57.1391 2.65153C55.8618 2.12768 54.5257 1.8758 53.2151 1.8758C49.0735 1.8729 45.1577 4.38999 43.5066 8.52086L43.4982 8.535L34.331 31.9668H34.3365C33.7229 33.4279 33.2293 34.7981 32.7469 35.9816C32.019 37.7992 31.3077 39.1073 30.4682 39.8662C30.0471 40.2512 29.5897 40.5401 28.9539 40.7666C28.3236 40.9875 27.4952 41.1375 26.3852 41.1375C25.7103 41.1346 25.0688 41.214 24.4412 41.3328H9.6207C5.23083 41.3328 1.67773 44.9428 1.67773 49.3964V85.9455C1.67773 90.3991 5.23083 94.0061 9.6207 94.0061H20.612C23.0468 94.0061 25.0242 92.0014 25.0242 89.5269V85.8152C25.7967 86.2738 26.6111 86.69 27.4868 87.0242C30.5491 88.202 34.1859 88.6947 38.5647 88.6947H72.7016C77.9338 88.6947 82.1785 84.3967 82.1785 79.0824C82.1785 77.8337 81.9275 76.6447 81.4952 75.5575C85.2714 74.2891 88.0019 70.6877 88.0019 66.4294C88.0047 64.6909 87.5221 63.0686 86.7272 61.6728C87.8735 60.7215 88.6516 59.4701 89.0951 58.162C89.5805 56.7577 89.7477 55.2798 89.7477 53.7764C89.7477 52.8448 89.5524 51.9388 89.2178 51.0555C88.9723 50.4269 88.6516 49.8068 88.2584 49.2208C91.1253 47.5673 93.0636 44.4443 93.0664 40.857ZM83.5952 45.7297H82.0166C81.3974 45.7297 80.8005 45.9818 80.3655 46.4234C79.9306 46.865 79.6794 47.4767 79.6794 48.0995C79.6794 48.7223 79.9304 49.334 80.3655 49.7756C80.8007 50.2172 81.3974 50.4722 82.0166 50.4722C82.4657 50.4722 82.8338 50.5742 83.1936 50.7637C83.7235 51.0384 84.2283 51.5565 84.5769 52.1624C84.9284 52.7569 85.0901 53.4394 85.079 53.7762C85.0846 55.2796 84.8224 56.5084 84.4152 57.2332C84.2089 57.6012 83.9884 57.8589 83.718 58.0656C83.4447 58.2695 83.1044 58.4395 82.5857 58.5527C81.7043 58.7339 81.0126 59.4105 80.7952 60.2968C80.5749 61.1858 80.8734 62.1144 81.5706 62.6977C82.6583 63.6208 83.3332 64.9289 83.3332 66.4294C83.3277 69.1192 81.1829 71.2992 78.5278 71.3048H77.415C76.4444 71.3048 75.5742 71.9108 75.234 72.8338C74.8881 73.7569 75.1393 74.7932 75.87 75.45C76.8853 76.3702 77.5071 77.6359 77.5071 79.0826C77.5043 81.7724 75.3568 83.9495 72.7017 83.9553H38.5649C34.9837 83.9582 32.1336 83.5815 29.9413 82.8737C28.2902 82.3413 27.0156 81.6365 25.9837 80.7558C25.6378 80.4557 25.3228 80.1272 25.0243 79.7848V46.0383C25.4008 45.9421 25.8359 45.8798 26.3853 45.8798C28.4073 45.8798 30.1616 45.5088 31.6425 44.7472C32.747 44.1839 33.6729 43.4053 34.4092 42.5416C35.5137 41.2364 36.2332 39.7698 36.8579 38.2863C37.4827 36.797 38.0181 35.2738 38.6484 33.7733L38.6762 33.7165L47.838 10.2905C48.7499 8.00281 50.9225 6.61824 53.2151 6.61552C53.9374 6.61552 54.6737 6.75432 55.3877 7.04877C57.6467 7.97182 59.0106 10.1774 59.0134 12.5104C59.0134 13.2437 58.8796 13.9883 58.5895 14.716L53.0562 28.6092C52.9809 28.7933 52.9334 28.9801 52.9056 29.1754C52.8358 29.702 52.7995 30.2003 52.7995 30.6818C52.7995 31.5651 52.9223 32.4003 53.2429 33.1789C53.4773 33.7622 53.8314 34.3029 54.2664 34.7305C54.919 35.3818 55.7083 35.7442 56.4139 35.931C57.1278 36.1236 57.7916 36.1631 58.408 36.166C59.7328 36.1575 60.9263 35.9678 61.6153 35.9792C62.2652 35.9792 69.4134 35.9792 70.0436 35.9792H83.5897C86.2392 35.9763 88.3979 38.1622 88.3979 40.8576C88.3922 43.5468 86.2446 45.7268 83.5952 45.7297Z" fill="#355C6E"/>
</g>
</g>
<defs>
<clipPath id="clip0_33_520">
<rect width="92.3821" height="93.7841" fill="white" transform="translate(0.684326 0.544655)"/>
</clipPath>
<clipPath id="clip1_33_520">
<rect width="91.3887" height="92.7757" fill="white" transform="translate(1.67773 1.55309)"/>
</clipPath>
</defs>
</svg>
