<svg width="93" height="95" viewBox="0 0 93 95" fill="none" xmlns="http://www.w3.org/2000/svg">
<path d="M88.5329 47.4367C88.5329 71.1762 69.5757 90.4211 46.1911 90.4211C22.8064 90.4211 3.84937 71.1762 3.84937 47.4367C3.84937 23.6971 22.8064 4.45233 46.1911 4.45233C69.5757 4.45233 88.5329 23.6971 88.5329 47.4367ZM11.5742 47.4367C11.5742 66.8454 27.0727 82.5792 46.1911 82.5792C65.3096 82.5792 80.8082 66.8454 80.8082 47.4367C80.8082 28.0281 65.3096 12.2944 46.1911 12.2944C27.0727 12.2944 11.5742 28.0281 11.5742 47.4367Z" fill="#355C6E"/>
<path d="M46.191 20.083C44.0651 20.083 42.3418 21.8325 42.3418 23.9907V49.2604C42.3418 49.2604 42.3418 50.2792 42.8295 51.0455C43.1559 51.6953 43.6648 52.26 44.3334 52.6519L62.1162 63.0748C63.9573 64.1538 66.3115 63.5133 67.3743 61.6443C68.437 59.7752 67.8065 57.3853 65.9654 56.3064L50.0403 46.9725V23.9907C50.0403 21.8326 48.317 20.083 46.191 20.083Z" fill="#355C6E"/>
</svg>
