<svg width="77" height="85" viewBox="0 0 77 85" fill="none" xmlns="http://www.w3.org/2000/svg">
<path d="M38.6212 66.4893C38.1131 65.3561 37.061 64.5292 35.7877 64.3823C34.7094 64.2572 33.6536 64.0228 32.6497 63.6846C32.1996 63.5309 31.7772 63.3632 31.3862 63.1834L32.0359 61.3854C32.4947 61.5932 32.9674 61.7834 33.4514 61.9554L33.4714 61.9627L33.492 61.9694C35.045 62.4904 36.5734 62.7546 38.0336 62.7546C39.4999 62.7546 40.5628 62.5551 41.3793 62.1273L41.4281 62.1018L41.4758 62.0736C42.7127 61.3531 43.4225 60.1146 43.4225 58.675C43.4225 57.0775 42.5736 55.7515 41.093 55.0351C40.3482 54.6673 39.2905 54.3161 37.7667 53.9316C36.2039 53.5304 34.891 53.1047 33.8728 52.6686C33.1286 52.3268 32.4829 51.7813 31.9009 51.0014C31.4 50.3053 31.1465 49.2585 31.1465 47.8888C31.1465 46.2361 31.6048 44.872 32.5481 43.7185C33.3878 42.7077 34.58 42.021 36.1803 41.636C37.3674 41.3505 38.2933 40.4902 38.7095 39.3794C39.1801 40.5054 40.1814 41.3426 41.4276 41.5443C42.4684 41.7126 43.4241 41.9809 44.2832 42.344L43.6853 44.1061C42.063 43.445 40.4663 43.111 38.922 43.111C33.7932 43.111 33.5335 46.7029 33.5335 47.423C33.5335 48.984 34.3639 50.2928 35.8118 51.0144L35.8523 51.0347L35.8934 51.0535C36.6247 51.3848 37.6625 51.7042 39.1601 52.0585C40.7085 52.4139 41.9998 52.8208 43.0145 53.272L43.0355 53.2814L43.0566 53.2902C43.81 53.6086 44.4562 54.14 45.032 54.9153L45.0413 54.9273L45.0505 54.9398C45.554 55.6004 45.8096 56.6222 45.8096 57.9768C45.8096 59.5404 45.3636 60.8638 44.4459 62.0231C43.6499 63.0287 42.5387 63.7247 41.0478 64.1509C39.8966 64.4802 39.0036 65.3738 38.6212 66.4893Z" fill="#355C6E"/>
<path d="M39.9197 71.1686H37.4484C36.8957 71.1686 36.4476 70.7023 36.4476 70.1266V68.0347C36.4476 67.4845 36.0365 67.0322 35.511 66.9712C34.2597 66.8269 33.0495 66.5576 31.8799 66.1637C30.7436 65.775 29.7591 65.3144 28.9266 64.7803C28.5439 64.5349 28.4048 64.0368 28.5629 63.5992L30.258 58.9068C30.4864 58.2754 31.2229 58.0336 31.79 58.3603C32.5558 58.8006 33.379 59.1773 34.2587 59.4899C35.57 59.9296 36.8285 60.1495 38.0335 60.1495C39.0698 60.1495 39.8104 60.0333 40.2543 59.8004C40.6982 59.5415 40.9205 59.1663 40.9205 58.675C40.9205 58.106 40.6243 57.6793 40.0321 57.3948C39.4613 57.1104 38.5093 56.7998 37.1775 56.4638C35.4643 56.024 34.037 55.5582 32.895 55.0669C31.7531 54.5495 30.759 53.7216 29.9132 52.5837C29.0671 51.4197 28.6442 49.8546 28.6442 47.8888C28.6442 45.6124 29.3104 43.6596 30.6425 42.0299C31.8434 40.5846 33.5012 39.6071 35.6167 39.0981C36.093 38.9834 36.4476 38.5531 36.4476 38.0446V35.739C36.4476 35.1633 36.8957 34.697 37.4484 34.697H39.9197C40.4724 34.697 40.9205 35.1633 40.9205 35.739V37.9127C40.9205 38.4452 41.3064 38.8886 41.8115 38.9704C43.6647 39.27 45.2932 39.8374 46.6964 40.6726C47.0947 40.9097 47.2528 41.414 47.0998 41.8642L45.5134 46.5372C45.3035 47.1567 44.6029 47.4188 44.0394 47.1229C42.2523 46.185 40.5468 45.7161 38.9219 45.7161C36.9973 45.7161 36.035 46.2851 36.035 47.423C36.035 47.9664 36.3209 48.3801 36.8916 48.6651C37.4628 48.9235 38.4036 49.208 39.7149 49.5185C41.4065 49.9067 42.8343 50.3589 43.9973 50.8763C45.1603 51.3676 46.1647 52.1825 47.011 53.321C47.8779 54.4589 48.3116 56.011 48.3116 57.9768C48.3116 60.1495 47.6664 62.0507 46.3761 63.6805C45.2527 65.1008 43.6971 66.0949 41.7103 66.6633C41.2536 66.7941 40.9205 67.2151 40.9205 67.708V70.1266C40.9205 70.7023 40.4724 71.1686 39.9197 71.1686Z" fill="#355C6E"/>
<path fill-rule="evenodd" clip-rule="evenodd" d="M27.6732 3.43561H49.3406C54.8902 3.43561 51.8426 12.1054 49.5957 17.3938L47.0388 23.4585L46.6934 24.2765C49.1153 24.1541 51.5106 24.8525 53.5189 26.2668C61.0321 33.4247 67.1298 42.0424 71.4687 51.6355C73.1593 55.1826 73.8301 59.1632 73.4 63.098C72.8837 73.1271 65.1559 81.1191 55.5205 81.5891H21.4932C11.8552 81.1332 4.11601 73.1495 3.58882 63.1188C3.15867 59.184 3.82942 55.2034 5.52037 51.6563C9.86433 42.0538 15.9705 33.4283 23.4948 26.2668C25.5035 24.8525 27.8983 24.1541 30.3202 24.2765L29.9199 23.3335L27.418 17.3938C25.1812 12.1054 22.1187 3.43561 27.6732 3.43561Z" stroke="#355C6E" stroke-width="5.8125" stroke-linecap="round" stroke-linejoin="round"/>
<path d="M46.6934 28.1842C48.8192 28.1842 50.5427 26.4347 50.5427 24.2765C50.5427 22.1184 48.8192 20.3689 46.6934 20.3689V28.1842ZM30.3202 20.3689C28.1945 20.3689 26.4711 22.1184 26.4711 24.2765C26.4711 26.4347 28.1945 28.1842 30.3202 28.1842V20.3689ZM60.4445 22.4523C62.2865 21.3751 62.9198 18.9858 61.8585 17.1157C60.7971 15.2457 58.4439 14.603 56.6019 15.6803L60.4445 22.4523ZM47.0388 23.4585L47.7815 27.2928L47.7928 27.2905L47.0388 23.4585ZM29.9199 23.3335L30.717 19.5103L30.6821 19.5031L29.9199 23.3335ZM20.3527 15.6461C18.4921 14.6023 16.1501 15.2873 15.1219 17.1761C14.0935 19.065 14.7683 21.4425 16.629 22.4865L20.3527 15.6461ZM46.6934 20.3689H30.3202V28.1842H46.6934V20.3689ZM56.6019 15.6803C53.3839 17.562 49.9011 18.8935 46.2849 19.6265L47.7928 27.2905C52.2338 26.3902 56.5054 24.756 60.4445 22.4523L56.6019 15.6803ZM46.2962 19.6243C41.1464 20.6523 35.8529 20.6135 30.717 19.5103L29.1232 27.1565C35.2735 28.4776 41.6139 28.524 47.7815 27.2928L46.2962 19.6243ZM30.6821 19.5031C27.0754 18.7639 23.5935 17.4644 20.3527 15.6461L16.629 22.4865C20.5542 24.6887 24.7777 26.266 29.1582 27.1639L30.6821 19.5031Z" fill="#355C6E"/>
</svg>
