<svg width="50" height="60" viewBox="0 0 50 60" fill="none" xmlns="http://www.w3.org/2000/svg">
<path fill-rule="evenodd" clip-rule="evenodd" d="M3.65569 19.7006C1.6199 19.7006 0 21.3075 0 23.327V38.4328C0 40.4523 1.6199 42.0593 3.65569 42.0593C5.69148 42.0593 7.31138 40.4523 7.31138 38.4328V23.327C7.31138 21.3075 5.69148 19.7006 3.65569 19.7006ZM46.2924 19.7006C44.2566 19.7006 42.6367 21.3075 42.6367 23.327V38.4328C42.6367 40.4523 44.2566 42.0593 46.2924 42.0593C48.3281 42.0593 49.9481 40.4523 49.9481 38.4328V23.327C49.9481 21.3075 48.3281 19.7006 46.2924 19.7006Z" fill="#355C6E"/>
<path fill-rule="evenodd" clip-rule="evenodd" d="M18.883 36.9388C16.8472 36.9388 15.2273 38.5457 15.2273 40.5653V55.671C15.2273 57.6905 16.8472 59.2975 18.883 59.2975C20.9188 59.2975 22.5387 57.6905 22.5387 55.671V40.5653C22.5387 38.5457 20.9188 36.9388 18.883 36.9388ZM31.0649 36.9388C29.0291 36.9388 27.4092 38.5457 27.4092 40.5653V55.671C27.4092 57.6905 29.0291 59.2975 31.0649 59.2975C33.1007 59.2975 34.7206 57.6905 34.7206 55.671V40.5653C34.7206 38.5457 33.1007 36.9388 31.0649 36.9388Z" fill="#355C6E"/>
<path fill-rule="evenodd" clip-rule="evenodd" d="M14.8522 0.668421C14.7657 0.669298 14.6852 0.691415 14.6058 0.735063C14.3452 0.878407 14.2594 1.17556 14.4043 1.43482L16.9795 6.04984C12.0249 8.60726 8.67834 13.4674 8.67163 19.0452H41.2761C41.2694 13.4674 37.9229 8.60726 32.9683 6.04984L35.5435 1.43482C35.6883 1.17556 35.6026 0.878407 35.3419 0.735063C35.2626 0.691415 35.182 0.669238 35.0956 0.668421C34.9106 0.66665 34.7353 0.758347 34.6366 0.934993L32.0277 5.6C29.8936 4.66094 27.4999 4.13386 24.9739 4.13386C22.4479 4.13386 20.0541 4.66094 17.92 5.6L15.3112 0.934993C15.2125 0.758347 15.0372 0.666661 14.8522 0.668421ZM8.67163 20.3225V43.7642C8.67163 45.9302 10.4294 47.6739 12.6128 47.6739H37.3349C39.5184 47.6739 41.2761 45.9302 41.2761 43.7642V20.3225H8.67163Z" fill="#355C6E"/>
<path fill-rule="evenodd" clip-rule="evenodd" d="M17.4497 10.4261C16.7054 10.4261 16.0894 11.0373 16.0894 11.7756C16.0894 12.514 16.7054 13.1251 17.4497 13.1251C18.194 13.1251 18.8101 12.514 18.8101 11.7756C18.8101 11.0373 18.194 10.4261 17.4497 10.4261ZM32.498 10.4261C31.7537 10.4261 31.1376 11.0373 31.1376 11.7756C31.1376 12.514 31.7537 13.1251 32.498 13.1251C33.2423 13.1251 33.8584 12.514 33.8584 11.7756C33.8584 11.0373 33.2423 10.4261 32.498 10.4261Z" fill="#F0F0F0" fill-opacity="0.666667"/>
</svg>
